HIERARCHY
ROOT Hips
{
	OFFSET 0.000000 83.214638 0.000000
	CHANNELS 6 Xposition Yposition Zposition Xrotation Yrotation Zrotation
	JOINT Pelvis
	{
		OFFSET 0.000000 0.000000 0.000000
		CHANNELS 3 Xrotation Yrotation Zrotation
		JOINT LeftUpLeg
		{
			OFFSET 8.479700 -4.795502 -0.379100
			CHANNELS 3 Xrotation Yrotation Zrotation
			JOINT LeftLeg
			{
				OFFSET 0.024144 -32.555107 0.112900
				CHANNELS 3 Xrotation Yrotation Zrotation
				JOINT LeftFoot
				{
					OFFSET -0.024144 -32.638630 -3.012600
					CHANNELS 3 Xrotation Yrotation Zrotation
					JOINT LeftToeBase
					{
						OFFSET 0.970200 -13.225400 11.864200
						CHANNELS 3 Xrotation Yrotation Zrotation
						End Site
						{
							OFFSET 0.000000 12.319262 0.000000
						}
					}
					JOINT LFootTongue
					{
						OFFSET 1.142400 -1.059800 6.665200
						CHANNELS 3 Xrotation Yrotation Zrotation
						End Site
						{
							OFFSET 0.000000 12.319262 0.000000
						}
					}
				}
				JOINT LeftPantLeg
				{
					OFFSET 0.918482 -16.533964 -2.284700
					CHANNELS 3 Xrotation Yrotation Zrotation
					End Site
					{
						OFFSET 0.350399 24.744368 0.000000
					}
				}
			}
		}
		JOINT RightUpLeg
		{
			OFFSET -8.479700 -4.795502 -0.379100
			CHANNELS 3 Xrotation Yrotation Zrotation
			JOINT RightLeg
			{
				OFFSET -0.023144 -32.555092 0.112900
				CHANNELS 3 Xrotation Yrotation Zrotation
				JOINT RightFoot
				{
					OFFSET 0.023144 -32.638641 -3.012700
					CHANNELS 3 Xrotation Yrotation Zrotation
					JOINT RightToeBase
					{
						OFFSET -0.970200 -13.225400 11.864200
						CHANNELS 3 Xrotation Yrotation Zrotation
						End Site
						{
							OFFSET 0.000000 12.319244 0.000000
						}
					}
					JOINT RFootTongue
					{
						OFFSET -1.142200 -1.059800 6.665200
						CHANNELS 3 Xrotation Yrotation Zrotation
						End Site
						{
							OFFSET 0.000000 12.319243 0.000000
						}
					}
				}
				JOINT RightPantLeg
				{
					OFFSET -0.919482 -16.533978 -2.284800
					CHANNELS 3 Xrotation Yrotation Zrotation
					End Site
					{
						OFFSET -0.350400 24.744419 0.000000
					}
				}
			}
		}
	}
	JOINT Spine
	{
		OFFSET 0.000000 7.722000 1.166200
		CHANNELS 3 Xrotation Yrotation Zrotation
		JOINT Spine1
		{
			OFFSET 0.000000 12.024101 0.248800
			CHANNELS 3 Xrotation Yrotation Zrotation
			JOINT Spine2
			{
				OFFSET 0.000000 11.502998 -0.491200
				CHANNELS 3 Xrotation Yrotation Zrotation
				JOINT Neck
				{
					OFFSET 0.000000 18.430702 -3.123100
					CHANNELS 3 Xrotation Yrotation Zrotation
					JOINT Head
					{
						OFFSET 0.000000 9.051102 1.034000
						CHANNELS 3 Xrotation Yrotation Zrotation
						JOINT HairB
						{
							OFFSET 0.208400 24.786102 24.822300
							CHANNELS 3 Xrotation Yrotation Zrotation
							End Site
							{
								OFFSET 0.000000 32.263779 0.000000
							}
						}
						JOINT HairA
						{
							OFFSET -7.081100 24.428299 23.196600
							CHANNELS 3 Xrotation Yrotation Zrotation
							End Site
							{
								OFFSET 0.000000 32.263779 0.000000
							}
						}
						JOINT Hat
						{
							OFFSET 16.728800 15.048294 -15.439601
							CHANNELS 3 Xrotation Yrotation Zrotation
							End Site
							{
								OFFSET 0.000000 32.263779 0.000000
							}
						}
					}
				}
				JOINT LeftShoulder
				{
					OFFSET 6.197800 13.665199 -4.064700
					CHANNELS 3 Xrotation Yrotation Zrotation
					JOINT LeftArm
					{
						OFFSET 7.778100 -0.187103 -1.709300
						CHANNELS 3 Xrotation Yrotation Zrotation
						JOINT LeftForeArm
						{
							OFFSET 22.049376 0.000000 0.000000
							CHANNELS 3 Xrotation Yrotation Zrotation
							JOINT LeftHand
							{
								OFFSET 23.009392 0.000000 0.000000
								CHANNELS 3 Xrotation Yrotation Zrotation
								JOINT LeftHandThumb1
								{
									OFFSET 3.507191 -2.063065 3.133727
									CHANNELS 3 Xrotation Yrotation Zrotation
									JOINT LeftHandThumb2
									{
										OFFSET 3.101337 -1.790558 1.790558
										CHANNELS 3 Xrotation Yrotation Zrotation
										JOINT LeftHandThumb3
										{
											OFFSET 3.058640 -1.765907 1.765906
											CHANNELS 3 Xrotation Yrotation Zrotation
											End Site
											{
												OFFSET -0.415260 3.926476 -0.049563
											}
										}
									}
								}
								JOINT LeftHandIndex1
								{
									OFFSET 11.334419 -0.901459 3.706815
									CHANNELS 3 Xrotation Yrotation Zrotation
									JOINT LeftHandIndex2
									{
										OFFSET 3.283112 0.000000 0.000000
										CHANNELS 3 Xrotation Yrotation Zrotation
										JOINT LeftHandIndex3
										{
											OFFSET 3.323853 0.000000 0.000000
											CHANNELS 3 Xrotation Yrotation Zrotation
											End Site
											{
												OFFSET -1.135597 3.097809 0.402452
											}
										}
									}
								}
								JOINT LeftHandMiddle1
								{
									OFFSET 11.335861 0.000000 0.000000
									CHANNELS 3 Xrotation Yrotation Zrotation
									JOINT LeftHandMiddle2
									{
										OFFSET 3.410492 0.000000 0.000000
										CHANNELS 3 Xrotation Yrotation Zrotation
										JOINT LeftHandMiddle3
										{
											OFFSET 3.312172 0.000000 0.000000
											CHANNELS 3 Xrotation Yrotation Zrotation
											End Site
											{
												OFFSET -1.150200 3.080154 0.400270
											}
										}
									}
								}
								JOINT LeftHandRing1
								{
									OFFSET 11.514786 -0.013176 -3.003090
									CHANNELS 3 Xrotation Yrotation Zrotation
									JOINT LeftHandRing2
									{
										OFFSET 3.053307 0.000000 0.000000
										CHANNELS 3 Xrotation Yrotation Zrotation
										JOINT LeftHandRing3
										{
											OFFSET 3.295807 0.000000 0.000000
											CHANNELS 3 Xrotation Yrotation Zrotation
											End Site
											{
												OFFSET -1.281006 3.013344 0.375733
											}
										}
									}
								}
								JOINT LeftHandPinky1
								{
									OFFSET 10.518692 -0.960396 -5.730441
									CHANNELS 3 Xrotation Yrotation Zrotation
									JOINT LeftHandPinky2
									{
										OFFSET 2.861649 0.000000 0.000000
										CHANNELS 3 Xrotation Yrotation Zrotation
										JOINT LeftHandPinky3
										{
											OFFSET 2.863380 0.000000 0.000000
											CHANNELS 3 Xrotation Yrotation Zrotation
											End Site
											{
												OFFSET -0.843597 2.711159 0.369971
											}
										}
									}
								}
							}
							JOINT LSleeve
							{
								OFFSET 6.676277 -0.344902 -1.011730
								CHANNELS 3 Xrotation Yrotation Zrotation
								End Site
								{
									OFFSET 0.000000 14.885353 0.000000
								}
							}
						}
					}
				}
				JOINT RightShoulder
				{
					OFFSET -6.197800 13.665199 -4.064700
					CHANNELS 3 Xrotation Yrotation Zrotation
					JOINT RightArm
					{
						OFFSET -7.778100 -0.187103 -1.709300
						CHANNELS 3 Xrotation Yrotation Zrotation
						JOINT RightForeArm
						{
							OFFSET -22.049376 0.000000 0.000000
							CHANNELS 3 Xrotation Yrotation Zrotation
							JOINT RightHand
							{
								OFFSET -23.009392 0.000000 0.000000
								CHANNELS 3 Xrotation Yrotation Zrotation
								JOINT RightHandThumb1
								{
									OFFSET -3.507191 -2.063065 3.133727
									CHANNELS 3 Xrotation Yrotation Zrotation
									JOINT RightHandThumb2
									{
										OFFSET -3.101337 -1.790558 1.790558
										CHANNELS 3 Xrotation Yrotation Zrotation
										JOINT RightHandThumb3
										{
											OFFSET -3.058640 -1.765907 1.765906
											CHANNELS 3 Xrotation Yrotation Zrotation
											End Site
											{
												OFFSET 0.415260 3.926476 -0.049563
											}
										}
									}
								}
								JOINT RightHandIndex1
								{
									OFFSET -11.334419 -0.901459 3.706815
									CHANNELS 3 Xrotation Yrotation Zrotation
									JOINT RightHandIndex2
									{
										OFFSET -3.283112 0.000000 0.000000
										CHANNELS 3 Xrotation Yrotation Zrotation
										JOINT RightHandIndex3
										{
											OFFSET -3.323853 0.000000 0.000000
											CHANNELS 3 Xrotation Yrotation Zrotation
											End Site
											{
												OFFSET 1.135597 3.097809 0.402452
											}
										}
									}
								}
								JOINT RightHandMiddle1
								{
									OFFSET -11.335861 0.000000 0.000000
									CHANNELS 3 Xrotation Yrotation Zrotation
									JOINT RightHandMiddle2
									{
										OFFSET -3.410492 0.000000 0.000000
										CHANNELS 3 Xrotation Yrotation Zrotation
										JOINT RightHandMiddle3
										{
											OFFSET -3.312172 0.000000 0.000000
											CHANNELS 3 Xrotation Yrotation Zrotation
											End Site
											{
												OFFSET 1.150200 3.080154 0.400270
											}
										}
									}
								}
								JOINT RightHandRing1
								{
									OFFSET -11.514786 -0.013176 -3.003090
									CHANNELS 3 Xrotation Yrotation Zrotation
									JOINT RightHandRing2
									{
										OFFSET -3.053307 0.000000 0.000000
										CHANNELS 3 Xrotation Yrotation Zrotation
										JOINT RightHandRing3
										{
											OFFSET -3.295807 0.000000 0.000000
											CHANNELS 3 Xrotation Yrotation Zrotation
											End Site
											{
												OFFSET 1.281006 3.013344 0.375733
											}
										}
									}
								}
								JOINT RightHandPinky1
								{
									OFFSET -10.518692 -0.960396 -5.730441
									CHANNELS 3 Xrotation Yrotation Zrotation
									JOINT RightHandPinky2
									{
										OFFSET -2.861649 0.000000 0.000000
										CHANNELS 3 Xrotation Yrotation Zrotation
										JOINT RightHandPinky3
										{
											OFFSET -2.863380 0.000000 0.000000
											CHANNELS 3 Xrotation Yrotation Zrotation
											End Site
											{
												OFFSET 0.843597 2.711159 0.369971
											}
										}
									}
								}
							}
							JOINT RSleeve
							{
								OFFSET -6.676277 -0.344902 -1.011730
								CHANNELS 3 Xrotation Yrotation Zrotation
								End Site
								{
									OFFSET 0.000000 14.885353 0.000000
								}
							}
						}
					}
				}
				JOINT Backpack
				{
					OFFSET 0.000000 -2.471497 36.677502
					CHANNELS 3 Xrotation Yrotation Zrotation
					End Site
					{
						OFFSET 0.000000 20.427315 0.000000
					}
				}
				JOINT Hood
				{
					OFFSET 0.000000 18.754097 -10.431000
					CHANNELS 3 Xrotation Yrotation Zrotation
					JOINT Hood1
					{
						OFFSET 0.000000 -5.011002 -7.685901
						CHANNELS 3 Xrotation Yrotation Zrotation
						End Site
						{
							OFFSET 0.000000 9.175140 0.000000
						}
					}
				}
				JOINT LHoodieString
				{
					OFFSET 5.250500 16.397697 3.089900
					CHANNELS 3 Xrotation Yrotation Zrotation
					JOINT LHoodieString1
					{
						OFFSET 0.257700 -6.364304 3.694600
						CHANNELS 3 Xrotation Yrotation Zrotation
						JOINT LHoodieString2
						{
							OFFSET 0.000000 -9.643799 2.679100
							CHANNELS 3 Xrotation Yrotation Zrotation
							End Site
							{
								OFFSET 0.000000 10.009018 0.000000
							}
						}
					}
				}
				JOINT RHoodieString
				{
					OFFSET -5.250500 16.397697 3.089900
					CHANNELS 3 Xrotation Yrotation Zrotation
					JOINT RHoodieString1
					{
						OFFSET -0.257700 -6.364304 3.694600
						CHANNELS 3 Xrotation Yrotation Zrotation
						JOINT RHoodieString2
						{
							OFFSET 0.000000 -9.643799 2.679100
							CHANNELS 3 Xrotation Yrotation Zrotation
							End Site
							{
								OFFSET 0.000000 10.009018 0.000000
							}
						}
					}
				}
			}
			JOINT LBackpack_Strap
			{
				OFFSET 15.223200 -7.719803 -6.610900
				CHANNELS 3 Xrotation Yrotation Zrotation
				End Site
				{
					OFFSET 0.000000 16.040596 0.000000
				}
			}
			JOINT RBackpack_Strap
			{
				OFFSET -15.223000 -7.719803 -6.610900
				CHANNELS 3 Xrotation Yrotation Zrotation
				End Site
				{
					OFFSET 0.000000 16.040596 0.000000
				}
			}
		}
	}
	JOINT BoyFacialAnim_Joint
	{
		OFFSET 1.000000 -82.208099 -1.550900
		CHANNELS 3 Xrotation Yrotation Zrotation
		End Site
		{
			OFFSET 0.000000 30.012791 0.000000
		}
	}
}
MOTION
Frames: 4
Frame Time: 0.033333
-0.321130 74.757935 -0.062625 3.669648 -56.917247 3.718136 0.000000 0.000003 -0.000000 -37.437776 10.457786 24.764855 33.845281 -5.190648 0.232784 1.173063 0.408823 -15.208685 -0.000000 0.000000 -0.000000 -0.000000 0.000000 -0.000000 0.000001 0.000003 -0.000000 -18.963727 -11.208616 -20.441102 42.346381 3.043971 -2.694320 -25.462387 -2.636995 16.824755 0.000000 0.000002 -0.000000 0.000000 0.000002 -0.000000 -0.000003 0.000001 -0.000002 2.959734 1.436546 0.514446 0.857088 0.554496 0.825201 0.851082 0.591576 0.821641 13.763222 13.934686 -3.482693 -0.015878 31.022955 -11.153801 0.000001 0.000000 -0.000000 0.000001 0.000000 -0.000000 0.000001 0.000000 -0.000000 0.206722 2.993321 -6.276977 -30.962935 3.286411 -62.117094 0.000053 -81.924841 0.000039 42.620630 -10.615978 15.082036 4.891671 7.994792 1.884013 10.475107 36.544309 -16.206454 -0.000001 -0.000000 -0.000001 7.775688 6.956338 -86.152728 10.250122 6.003584 -119.372063 0.000002 -0.000001 -0.000005 6.544550 6.873030 -87.274306 9.404173 6.404052 -111.556045 0.000001 0.000001 0.000002 3.127862 6.869486 -89.819665 9.007610 6.545911 -108.040725 -0.000000 0.000000 -0.000000 1.160393 7.315404 -94.148434 8.017694 2.700473 -99.510699 0.000000 0.000001 -0.000003 -0.000001 -0.000002 0.000002 0.528129 -1.053758 12.087977 -19.069270 44.226117 55.044389 0.000003 119.242344 0.000002 -10.077004 10.418564 -11.854183 2.101961 -10.083014 3.633756 25.660785 -30.716710 6.844843 0.000003 0.000000 -0.000001 9.556187 -7.137727 86.157905 10.350230 -6.061995 119.375546 -0.000001 0.000001 0.000002 6.610166 -6.940062 87.289428 9.494175 -6.467105 111.542617 0.000000 0.000001 -0.000000 1.946419 -7.142797 92.181114 8.379085 -6.800027 101.912324 0.000003 -0.000002 -0.000002 -2.850698 -7.674963 94.127493 8.100966 -6.852429 99.572683 0.000003 -0.000003 -0.000000 0.000001 -0.000003 0.000003 -0.000000 -0.000002 0.000000 -0.000000 -0.000002 0.000000 -0.000000 -0.000002 0.000000 -0.000000 -0.000002 0.000000 -0.000000 -0.000002 0.000000 -0.000000 -0.000003 0.000000 -0.000000 -0.000002 0.000000 -0.000000 -0.000002 0.000000 -0.000000 -0.000003 0.000000 -0.000000 -0.000003 0.000000 -0.000000 -0.000003 0.000000 0.000000 0.000003 -0.000000 
-0.497214 74.749557 -0.116427 3.660042 -57.122559 3.868630 0.000000 0.000001 -0.000000 -37.127136 10.527202 24.738250 33.683792 -4.971509 0.309765 1.139112 0.411284 -15.469501 -0.000000 -0.000000 -0.000000 -0.000000 -0.000000 0.000000 -0.000001 0.000003 0.000001 -19.026715 -11.153729 -20.531158 42.556180 3.197685 -2.681434 -25.680296 -2.573806 16.666368 -0.000000 0.000002 0.000000 -0.000000 0.000002 0.000000 -0.000001 -0.000003 0.000002 2.925701 1.402786 0.512688 0.814299 0.539857 0.871066 0.807942 0.579624 0.867293 13.880176 13.943184 -3.714767 0.121146 31.174872 -11.391918 0.000000 0.000001 -0.000000 0.000000 0.000001 -0.000000 0.000000 0.000001 -0.000000 0.208231 3.065783 -6.189140 -30.664722 3.434434 -62.493731 -0.000007 -82.386923 0.000007 41.784871 -11.887570 17.129993 4.891668 7.994773 1.883989 10.475125 36.544357 -16.206454 -0.000003 -0.000001 -0.000001 7.775694 6.956326 -86.152728 10.250122 6.003580 -119.372063 0.000002 -0.000003 -0.000000 6.544560 6.873032 -87.274320 9.404176 6.404046 -111.556039 0.000001 -0.000002 0.000003 3.127858 6.869482 -89.819672 9.007615 6.545925 -108.040718 0.000001 0.000001 -0.000000 1.160394 7.315415 -94.148414 8.017701 2.700481 -99.510699 0.000001 0.000003 0.000000 -0.000002 0.000003 0.000005 0.523047 -1.000388 11.722507 -18.671090 44.147792 55.253840 -0.000000 119.501372 -0.000008 -9.715598 10.049052 -12.021166 2.101960 -10.083012 3.633755 25.660795 -30.716686 6.844842 -0.000001 0.000001 0.000000 9.556177 -7.137715 86.157912 10.350230 -6.062004 119.375533 -0.000001 -0.000002 0.000007 6.610162 -6.940060 87.289428 9.494176 -6.467108 111.542624 0.000002 0.000004 0.000002 1.946423 -7.142797 92.181135 8.379071 -6.800011 101.912324 -0.000003 -0.000001 0.000000 -2.850708 -7.674957 94.127472 8.100971 -6.852433 99.572670 0.000002 0.000000 -0.000001 -0.000003 0.000001 0.000002 0.000001 -0.000001 0.000000 0.000001 -0.000001 0.000000 0.000001 -0.000001 0.000000 0.000001 -0.000001 0.000000 0.000001 -0.000001 -0.000000 -0.000000 0.000002 0.000000 0.000001 -0.000001 0.000000 0.000001 -0.000001 -0.000000 -0.000000 0.000002 0.000000 0.000000 0.000003 -0.000000 0.000000 0.000003 -0.000000 0.000000 0.000001 -0.000000 
-0.659483 74.760551 -0.173912 3.718151 -57.394886 4.056621 -0.000000 -0.000002 0.000000 -36.782136 10.581773 24.711373 33.438151 -4.659052 0.402048 1.145857 0.414262 -15.759381 0.000000 0.000002 -0.000000 0.000000 0.000002 0.000000 0.000000 -0.000001 0.000000 -19.089335 -11.060520 -20.548233 42.676159 3.399379 -2.713936 -25.835411 -2.560211 16.502922 0.000000 0.000000 -0.000000 0.000000 0.000000 -0.000000 0.000000 -0.000000 0.000001 2.891397 1.362245 0.506110 0.785594 0.523085 0.901565 0.779074 0.564488 0.897750 13.919873 13.962751 -3.887634 0.181276 31.354383 -11.619284 0.000000 -0.000000 -0.000000 0.000000 -0.000000 -0.000000 0.000000 -0.000000 -0.000000 0.205425 3.093235 -5.969603 -30.479145 3.759582 -62.819927 -0.000103 -83.051193 -0.000093 38.914473 -14.071823 18.565057 4.891676 7.994801 1.884014 10.475118 36.544312 -16.206458 -0.000004 0.000000 0.000000 7.775696 6.956340 -86.152735 10.250139 6.003566 -119.372077 -0.000003 0.000002 -0.000005 6.544548 6.873026 -87.274286 9.404163 6.404055 -111.556032 0.000000 -0.000001 0.000000 3.127865 6.869488 -89.819651 9.007618 6.545912 -108.040752 0.000002 0.000004 -0.000005 1.160387 7.315410 -94.148427 8.017710 2.700484 -99.510720 -0.000004 -0.000001 -0.000002 -0.000000 -0.000000 0.000001 0.513531 -1.007510 11.235943 -18.604194 44.198246 55.520217 0.000070 119.647866 -0.000054 -9.155331 9.770896 -12.283340 2.101972 -10.083010 3.633765 25.660763 -30.716665 6.844842 0.000005 0.000002 -0.000002 9.556187 -7.137721 86.157891 10.350236 -6.061992 119.375560 -0.000001 0.000003 0.000006 6.610152 -6.940063 87.289435 9.494169 -6.467116 111.542617 0.000002 0.000003 0.000002 1.946411 -7.142797 92.181114 8.379087 -6.800016 101.912331 -0.000002 -0.000001 0.000004 -2.850688 -7.674951 94.127472 8.100968 -6.852423 99.572704 -0.000000 -0.000001 -0.000000 0.000003 -0.000001 0.000001 -0.000000 0.000001 -0.000001 -0.000000 0.000001 -0.000001 -0.000000 0.000001 -0.000001 -0.000000 0.000001 -0.000001 -0.000000 0.000001 -0.000001 -0.000000 0.000001 -0.000000 -0.000000 0.000001 -0.000001 -0.000000 0.000001 -0.000001 -0.000000 0.000001 -0.000000 0.000000 -0.000001 0.000000 0.000000 -0.000001 0.000000 -0.000000 -0.000002 0.000000 
-0.812952 74.784271 -0.217344 3.820860 -57.763449 4.270967 -0.000000 -0.000003 0.000000 -36.383646 10.603163 24.681006 33.174000 -4.211344 0.503069 1.142048 0.420175 -16.080574 0.000000 -0.000002 0.000000 0.000000 -0.000002 0.000000 0.000001 0.000005 0.000001 -19.151705 -10.927848 -20.501820 42.721242 3.606265 -2.829364 -25.937541 -2.541002 16.385117 -0.000000 -0.000000 0.000000 -0.000000 -0.000000 0.000000 -0.000000 0.000000 -0.000001 2.839423 1.323783 0.475032 0.768201 0.507908 0.919005 0.761563 0.550078 0.915319 13.919908 13.992977 -4.008339 0.185717 31.544378 -11.747174 0.000001 -0.000000 0.000000 0.000001 -0.000000 0.000000 0.000001 -0.000000 0.000000 0.191712 3.140252 -5.571440 -30.503574 4.179198 -63.058198 -0.000429 -84.121880 -0.000431 34.414584 -16.909004 19.143468 4.891670 7.994789 1.884007 10.475091 36.544330 -16.206447 -0.000003 0.000001 -0.000001 7.775691 6.956331 -86.152728 10.250128 6.003581 -119.372063 -0.000003 0.000001 -0.000003 6.544552 6.873020 -87.274306 9.404175 6.404060 -111.556045 0.000002 -0.000004 0.000001 3.127862 6.869482 -89.819679 9.007616 6.545903 -108.040745 -0.000000 -0.000000 -0.000006 1.160394 7.315416 -94.148427 8.017700 2.700485 -99.510699 0.000001 0.000001 -0.000003 -0.000001 -0.000001 0.000005 0.500143 -1.303727 10.755877 -18.879603 44.635385 55.791755 0.000005 119.566314 0.000003 -8.709735 9.719046 -12.643674 2.101963 -10.083013 3.633739 25.660795 -30.716689 6.844857 -0.000000 0.000001 -0.000000 9.556199 -7.137725 86.157905 10.350217 -6.061994 119.375533 -0.000003 0.000001 -0.000001 6.610168 -6.940069 87.289415 9.494182 -6.467110 111.542624 0.000004 -0.000001 -0.000000 1.946425 -7.142806 92.181114 8.379087 -6.800018 101.912324 0.000001 -0.000001 0.000000 -2.850695 -7.674956 94.127465 8.100987 -6.852429 99.572704 -0.000001 0.000002 0.000001 0.000001 -0.000002 0.000002 -0.000000 -0.000005 0.000000 -0.000000 -0.000005 0.000000 -0.000000 -0.000005 0.000000 -0.000000 -0.000005 0.000000 -0.000000 -0.000005 -0.000000 -0.000001 -0.000001 -0.000000 -0.000000 -0.000005 0.000000 -0.000000 -0.000005 -0.000000 -0.000001 -0.000001 -0.000000 0.000000 0.000003 -0.000000 0.000000 0.000003 -0.000000 -0.000000 -0.000003 0.000000 
